<?xml version="1.0" encoding="utf-8"?>
<!-- Generator: Adobe Illustrator 28.0.0, SVG Export Plug-In . SVG Version: 6.00 Build 0)  -->
<svg version="1.1" id="Layer_1" xmlns="http://www.w3.org/2000/svg" xmlns:xlink="http://www.w3.org/1999/xlink" x="0px" y="0px"
	 viewBox="0 0 100 100" enable-background="new 0 0 100 100" xml:space="preserve">
<g>
	
		<polygon fill="#B3B3B3" stroke="#000000" stroke-width="3" stroke-linecap="round" stroke-linejoin="round" stroke-miterlimit="10" points="
		10,79.8 44.1,60.9 44.1,10.4 10,29.2 	"/>
	
		<polygon fill="#B3B3B3" stroke="#000000" stroke-width="3" stroke-linecap="round" stroke-linejoin="round" stroke-miterlimit="10" points="
		90,70.4 44.1,60.9 44.1,10.4 90,19.8 	"/>
	
		<polygon fill="#B3B3B3" stroke="#000000" stroke-width="3" stroke-linecap="round" stroke-linejoin="round" stroke-miterlimit="10" points="
		44.1,61.2 90,70.6 55.9,89.4 10,80 	"/>
</g>
<polygon fill="#FFFFFF" stroke="#000000" stroke-width="3" stroke-linecap="round" stroke-linejoin="round" stroke-miterlimit="10" points="
	44.1,10.6 90,20 55.9,38.8 10,29.4 "/>
<g>
	
		<polygon fill="#E6E6E6" stroke="#000000" stroke-width="3" stroke-linecap="round" stroke-linejoin="round" stroke-miterlimit="10" points="
		55.9,89.4 90,70.6 90,20 55.9,38.8 	"/>
	
		<polygon fill="#FFFFFF" stroke="#000000" stroke-width="3" stroke-linecap="round" stroke-linejoin="round" stroke-miterlimit="10" points="
		55.9,89.4 10,80 10,29.4 55.9,38.8 	"/>
	<g>
		
			<polygon fill="#A0C8D7" stroke="#000000" stroke-width="3" stroke-linecap="round" stroke-linejoin="round" stroke-miterlimit="10" points="
			35.6,56.5 27.2,54.6 22.3,48 24.8,43.7 38,46.8 40.5,52.2 		"/>
		
			<ellipse transform="matrix(0.7465 -0.6653 0.6653 0.7465 -35.4406 37.425)" fill="none" stroke="#000000" stroke-width="3" stroke-miterlimit="10" cx="31.4" cy="65.2" rx="8.6" ry="10.8"/>
	</g>
</g>
</svg>
